# xmcd CD database file
#
# Track frame offsets:
#	182
#	14855
#	27447
#	38612
#	51892
#	64125
#	78895
#	106517
#	125790
#	139990
#	154485
#	168217
#	182307
#	195002
#	207765
#	221065
#	235005
#	247520
#
# Disc length: 3488 seconds
#
# Revision: 0
# Processed by: cddbd v1.5.2PL0 Copyright (c) Steve Scherf et al.
# Submitted via: CDex 1.70beta2
#
DISCID=e70d9e12
DTITLE=Duke Ellington - 1947-1952 vol 4
DYEAR=1947
DGENRE=Jazz
TTITLE0=Please be kind
TTITLE1=Smada
TTITLE2=Rock skippin' at the blue note
TTITLE3=Bensonality
TTITLE4=Blues at sundown
TTITLE5=Duet
TTITLE6=Before my time
TTITLE7=Later
TTITLE8=Azalea
TTITLE9=Vagabonds
TTITLE10=Somthing to live for
TTITLE11=I love my lovin' lover
TTITLE12=Come on home
TTITLE13=The blues 
TTITLE14=Body and soul
TTITLE15=Primpin' for the prom
TTITLE16=The vulture song
TTITLE17=Follow me
EXTD=YEAR: 1947
EXTT0=
EXTT1=
EXTT2=
EXTT3=
EXTT4=
EXTT5=
EXTT6=
EXTT7=
EXTT8=
EXTT9=
EXTT10=
EXTT11=
EXTT12=
EXTT13=
EXTT14=
EXTT15=
EXTT16=
EXTT17=
PLAYORDER=
